 <svg version="1.0" xmlns="http://www.w3.org/2000/svg" width="700.000000pt" height="700.000000pt" viewBox="0 0 700.000000 700.000000" preserveAspectRatio="xMidYMid meet">
<metadata>
Created by potrace 1.12, written by Peter Selinger 2001-2015
</metadata>
<g transform="translate(0.000000,700.000000) scale(0.100000,-0.100000)" fill="#000000" stroke="none">
<path d="M3040 6920 c-8 -5 -27 -10 -42 -10 -15 0 -30 -4 -33 -10 -3 -5 -26
-18 -50 -29 -24 -10 -64 -38 -88 -61 -53 -48 -127 -157 -127 -186 0 -26 19
-44 45 -44 12 0 26 -5 33 -12 8 -8 56 -12 152 -12 96 0 144 4 152 12 7 7 18
12 25 12 25 0 143 81 178 123 20 23 47 65 62 95 l26 53 -23 24 c-33 36 -106
55 -207 55 -48 0 -95 -5 -103 -10z"></path>
<path d="M4908 6510 c-14 -9 -16 -22 -12 -83 3 -39 9 -81 13 -92 26 -71 72
-147 114 -189 54 -54 51 -67 -15 -58 -48 6 -100 -9 -195 -55 -122 -59 -238
-208 -245 -313 -3 -41 -2 -43 37 -57 39 -14 130 -13 215 2 66 12 163 67 221
124 63 64 119 153 119 192 0 43 23 54 73 36 23 -9 71 -17 107 -19 l65 -3 3 60
c4 70 -7 113 -55 212 -50 106 -109 156 -274 234 -29 13 -153 20 -171 9z"></path>
<path d="M1913 6458 c-15 -30 -25 -68 -40 -157 -16 -95 46 -267 127 -355 55
-59 140 -116 174 -116 42 0 70 72 83 210 6 68 -10 148 -45 220 -28 56 -155
200 -177 200 -7 0 -18 7 -25 15 -7 8 -28 15 -46 15 -28 0 -36 -6 -51 -32z"></path>
<path d="M3575 6428 c-64 -22 -96 -39 -102 -54 -24 -63 197 -284 284 -284 12
0 25 -4 28 -10 4 -6 58 -10 130 -10 72 0 126 4 130 10 3 6 14 10 24 10 10 0
31 10 46 21 33 27 30 59 -15 124 -55 81 -141 144 -254 190 -44 17 -222 19
-271 3z"></path>
<path d="M2596 6369 c-42 -47 -74 -104 -106 -189 -17 -47 -18 -206 0 -250 53
-138 107 -220 143 -220 42 0 143 142 170 238 16 60 20 183 6 227 -33 109 -42
130 -69 171 -31 44 -65 74 -86 74 -7 0 -33 -23 -58 -51z"></path>
<path d="M3077 6368 c-37 -85 -45 -119 -46 -196 -2 -61 2 -90 13 -108 9 -13
16 -32 16 -43 0 -42 96 -180 158 -228 20 -15 57 -38 82 -51 l44 -23 18 23 c10
13 18 30 18 38 0 8 7 24 15 34 18 23 22 254 5 284 -5 9 -19 37 -30 62 -45 98
-111 169 -194 210 -33 17 -65 30 -72 30 -7 0 -19 -15 -27 -32z"></path>
<path d="M4405 6366 c-53 -36 -100 -81 -119 -115 -6 -11 -23 -41 -38 -67 -16
-25 -28 -55 -28 -65 0 -10 -4 -21 -10 -24 -14 -9 -13 -210 1 -254 16 -50 42
-100 57 -113 16 -13 45 0 119 54 69 50 138 155 172 259 14 44 15 216 1 224 -5
3 -10 18 -10 33 0 39 -45 102 -73 102 -12 0 -45 -15 -72 -34z"></path>
<path d="M754 6215 c-6 -16 0 -114 11 -160 3 -16 23 -63 42 -103 57 -115 178
-212 293 -236 14 -2 44 -10 67 -17 33 -10 47 -10 68 -1 26 12 26 14 22 80 -8
96 -17 140 -33 153 -8 6 -14 19 -14 29 0 21 -40 83 -83 128 -39 41 -150 114
-198 130 -52 18 -168 16 -175 -3z"></path>
<path d="M1615 6094 c-22 -15 -51 -36 -64 -48 -28 -25 -101 -135 -101 -152 0
-6 -6 -17 -14 -23 -19 -16 -28 -71 -29 -176 0 -106 6 -138 42 -208 18 -36 33
-53 48 -55 33 -5 124 67 175 140 78 109 102 186 95 299 -7 99 -15 133 -46 193
-31 61 -51 67 -106 30z"></path>
<path d="M5515 6002 c-91 -30 -216 -185 -248 -307 -20 -80 -8 -263 19 -286 8
-6 14 -19 14 -28 0 -22 19 -41 41 -41 28 0 165 107 201 158 79 110 110 235 88
355 -7 39 -17 76 -22 82 -4 5 -8 16 -8 25 0 20 -31 50 -51 49 -8 -1 -23 -4
-34 -7z"></path>
<path d="M2974 5871 c-60 -35 -157 -136 -179 -189 -9 -20 -24 -50 -33 -67 -13
-24 -17 -57 -16 -155 0 -109 3 -131 22 -167 12 -24 29 -43 37 -43 16 0 91 40
151 81 62 42 144 153 144 197 0 9 7 26 15 36 11 15 15 49 15 135 -1 102 -4
121 -24 156 -30 52 -62 56 -132 16z"></path>
<path d="M3720 5814 c-37 -5 -39 -6 -135 -50 -99 -46 -185 -144 -236 -269 -16
-41 -21 -121 -7 -132 19 -16 146 -18 198 -4 136 39 211 91 281 191 33 48 49
79 49 99 0 9 7 25 15 35 17 23 20 112 4 122 -14 8 -122 13 -169 8z"></path>
<path d="M2210 5763 c-38 -4 -48 -8 -125 -44 -88 -42 -215 -189 -215 -249 0
-10 -6 -23 -14 -29 -19 -16 -31 -176 -17 -213 9 -24 16 -28 52 -28 22 0 55 6
72 14 18 7 48 20 67 27 39 15 124 74 156 110 31 34 74 106 74 123 0 7 6 19 14
25 16 14 26 59 33 159 4 61 2 77 -13 93 -9 10 -24 18 -33 17 -9 0 -32 -3 -51
-5z"></path>
<path d="M5878 5633 c-6 -7 -19 -13 -29 -13 -20 0 -60 -21 -131 -69 -62 -42
-63 -67 -6 -116 49 -42 103 -73 173 -100 39 -15 74 -20 162 -20 61 1 122 6
135 12 107 51 144 72 169 101 16 18 29 38 29 45 0 19 -79 91 -130 119 -85 46
-149 60 -260 56 -66 -2 -105 -7 -112 -15z"></path>
<path d="M4272 5514 c-95 -81 -162 -227 -162 -354 0 -67 23 -161 51 -210 5 -8
16 -29 24 -47 23 -45 50 -66 74 -58 44 14 171 178 171 221 0 8 7 25 16 39 12
19 15 46 12 132 -4 106 -12 139 -51 218 -23 46 -65 95 -82 95 -6 0 -30 -16
-53 -36z"></path>
<path d="M880 5460 c-76 -9 -178 -66 -252 -142 -76 -76 -84 -103 -40 -134 74
-53 148 -74 259 -74 129 0 218 38 323 137 76 71 99 106 82 126 -11 12 -99 59
-147 78 -27 10 -170 16 -225 9z"></path>
<path d="M4940 5425 c-7 -8 -17 -15 -22 -15 -10 0 -60 -34 -97 -65 -30 -25
-111 -149 -111 -169 0 -8 -4 -18 -10 -21 -5 -3 -10 -23 -10 -44 0 -20 -5 -42
-11 -48 -14 -14 0 -169 20 -218 5 -11 14 -33 20 -48 20 -50 50 -46 136 18 61
45 105 88 105 101 0 6 7 18 16 25 57 47 98 240 74 348 -26 118 -74 179 -110
136z"></path>
<path d="M3864 5359 c-4 -6 -11 -41 -16 -78 -18 -132 -20 -146 -30 -158 -5 -7
-12 -31 -15 -55 -2 -23 -8 -47 -13 -53 -4 -5 -10 -28 -13 -50 -12 -81 -54
-275 -78 -351 -5 -17 -9 -44 -9 -60 0 -16 -7 -42 -15 -58 -8 -15 -15 -43 -15
-60 0 -18 -4 -36 -9 -41 -5 -6 -12 -28 -15 -50 -15 -111 -22 -140 -30 -135
-11 6 -213 214 -384 394 -78 82 -113 114 -117 103 -4 -8 3 -30 14 -48 12 -19
24 -41 27 -49 3 -8 16 -37 29 -65 12 -27 29 -66 38 -85 32 -75 61 -138 93
-207 19 -40 34 -77 34 -82 0 -5 9 -26 19 -48 10 -21 30 -63 44 -93 14 -30 42
-90 62 -133 l37 -79 -6 -106 c-6 -129 -18 -251 -42 -432 -9 -74 -18 -159 -18
-189 -1 -60 -15 -74 -40 -40 -8 12 -191 199 -406 414 -214 216 -390 396 -390
401 -1 18 -20 263 -29 364 -5 58 -14 126 -21 151 -14 54 -10 111 8 117 8 2 12
-7 12 -28 0 -30 24 -90 37 -90 4 0 36 14 72 32 77 37 175 131 208 198 45 95
53 129 53 228 0 132 -26 202 -74 202 -37 0 -138 -66 -194 -128 -50 -53 -102
-144 -102 -177 0 -18 -28 -126 -35 -133 -13 -13 -24 56 -19 117 4 39 2 90 -4
117 -6 27 -14 94 -17 149 -12 205 -19 260 -34 260 -10 0 -14 -24 -16 -100 -1
-55 -7 -147 -13 -205 -6 -58 -15 -159 -21 -225 -7 -66 -14 -127 -18 -135 -3
-8 -9 -64 -14 -125 -15 -202 -28 -336 -33 -344 -3 -4 -8 -46 -10 -92 -9 -131
-16 -169 -34 -169 -8 0 -44 26 -79 58 -76 67 -127 110 -300 251 -70 58 -157
130 -192 160 -146 128 -172 150 -266 226 -54 44 -163 137 -242 208 -79 70
-148 127 -153 127 -27 0 5 -40 167 -205 98 -99 205 -211 238 -250 206 -238
334 -412 320 -435 -3 -5 -20 -10 -38 -9 -60 2 -202 -14 -222 -24 -10 -5 -46
-13 -80 -18 -201 -25 -235 -33 -235 -54 0 -10 34 -14 132 -19 73 -3 180 -10
238 -15 58 -6 164 -15 235 -20 152 -12 168 -15 215 -49 140 -102 610 -625 746
-831 16 -24 36 -54 44 -66 70 -102 144 -219 156 -245 4 -8 21 -35 38 -60 55
-81 121 -194 160 -275 21 -44 43 -89 49 -100 12 -23 12 -891 -1 -909 -4 -6
-16 -27 -26 -46 -24 -44 -92 -146 -123 -185 -14 -16 -43 -55 -66 -86 -23 -31
-78 -101 -122 -154 -44 -54 -102 -126 -130 -160 -81 -101 -175 -208 -203 -232
-14 -12 -23 -25 -19 -29 3 -4 79 -6 168 -5 l161 2 -6 -43 c-3 -24 -10 -90 -15
-148 -5 -58 -14 -118 -20 -133 -6 -16 -11 -39 -11 -53 0 -20 5 -24 30 -24 20
0 30 5 30 15 0 8 5 15 11 15 6 0 71 40 145 90 73 49 136 90 140 90 4 0 15 7
24 15 9 8 45 29 80 48 36 19 74 38 85 44 75 40 137 48 179 25 96 -53 256 -173
327 -245 16 -16 33 -26 39 -22 13 8 13 222 0 230 -5 3 -10 14 -10 24 0 10 -7
24 -15 31 -10 8 -15 30 -15 64 0 70 26 96 91 92 25 -2 55 -8 66 -15 12 -6 33
-11 47 -11 14 0 28 -4 31 -10 3 -5 13 -10 20 -10 25 0 275 -117 347 -162 26
-16 53 -26 59 -22 8 5 10 30 5 87 -8 99 -39 161 -109 221 -160 134 -242 227
-280 316 -9 19 -25 56 -36 82 -23 53 -39 109 -51 183 -4 28 -13 79 -19 115 -7
41 -11 294 -11 693 l0 627 62 78 c92 114 292 316 382 386 44 33 100 77 125 96
62 48 234 161 296 194 28 15 66 37 85 48 57 34 164 88 172 88 5 0 27 8 51 19
23 10 64 27 90 37 27 11 49 24 49 29 -1 17 -32 17 -67 1 -18 -9 -39 -16 -46
-16 -14 0 -70 -17 -109 -33 -23 -9 -49 -15 -152 -35 -24 -5 -53 -14 -65 -20
-12 -7 -37 -12 -57 -12 -19 0 -37 -4 -40 -9 -3 -4 -27 -11 -53 -15 -27 -3 -75
-10 -108 -16 -33 -6 -89 -15 -125 -20 -36 -5 -91 -14 -122 -21 -74 -17 -94 -3
-48 32 18 13 80 69 139 124 159 148 430 397 476 435 22 19 81 72 130 119 50
48 167 156 260 242 94 86 235 216 314 290 79 74 170 156 203 182 51 42 66 67
38 67 -7 0 -118 -72 -276 -178 -10 -7 -32 -19 -49 -28 -16 -8 -53 -29 -81 -47
-27 -18 -102 -63 -165 -101 -63 -37 -160 -98 -217 -134 -72 -45 -106 -62 -114
-54 -5 5 -14 57 -19 114 -24 292 -29 342 -37 350 -15 15 -26 -11 -34 -82 -7
-61 -13 -103 -37 -240 -5 -30 -14 -83 -19 -116 -6 -34 -15 -71 -21 -82 -6 -12
-11 -38 -11 -60 0 -42 -14 -59 -85 -106 -22 -14 -68 -47 -102 -73 -34 -27 -99
-75 -144 -108 -46 -33 -123 -89 -171 -125 -48 -36 -116 -85 -151 -110 -34 -24
-93 -69 -130 -98 -38 -30 -70 -52 -73 -50 -2 3 -7 99 -10 213 -3 115 -8 213
-11 219 -4 5 -10 109 -15 230 -14 394 -25 621 -31 636 -3 8 -8 127 -10 265 -4
235 -10 280 -33 244z"></path>
<path d="M1423 5316 c-66 -75 -122 -241 -109 -324 3 -23 9 -60 12 -82 3 -22
10 -43 15 -46 5 -3 9 -13 9 -22 0 -36 128 -202 155 -202 25 0 110 132 142 220
19 52 17 244 -2 260 -9 7 -13 21 -10 31 3 9 1 20 -4 23 -5 4 -20 27 -32 52
-22 44 -108 134 -128 134 -5 0 -27 -20 -48 -44z"></path>
<path d="M3282 5328 c-7 -7 -12 -17 -12 -24 0 -6 -6 -17 -14 -23 -27 -23 -39
-206 -19 -286 25 -98 96 -205 175 -262 92 -67 131 -78 148 -43 33 66 44 121
43 215 -1 93 -8 128 -46 205 -31 65 -143 190 -170 190 -7 0 -30 9 -52 20 -46
24 -39 22 -53 8z"></path>
<path d="M2029 5123 c-39 -47 -49 -91 -49 -214 0 -117 1 -121 37 -197 43 -91
131 -185 207 -222 58 -27 73 -22 91 35 36 114 42 215 20 310 -39 167 -245 361
-306 288z"></path>
<path d="M5520 5120 c-8 -5 -27 -10 -42 -10 -15 0 -30 -4 -33 -10 -3 -5 -12
-10 -20 -10 -23 0 -98 -55 -152 -113 -65 -69 -113 -165 -116 -231 l-2 -50 45
-8 c52 -10 179 -2 230 15 102 33 224 142 274 244 10 21 22 46 27 55 5 10 9 36
9 57 0 57 -24 71 -125 71 -44 0 -87 -5 -95 -10z"></path>
<path d="M6250 5112 l-45 -7 3 -45 c2 -25 7 -49 12 -54 6 -6 10 -16 10 -22 0
-7 16 -40 36 -73 41 -69 119 -146 169 -166 18 -8 36 -19 40 -25 3 -5 16 -10
29 -10 12 0 27 -5 33 -11 18 -18 236 -18 257 0 67 56 -84 301 -229 370 -28 13
-57 27 -66 32 -23 11 -196 18 -249 11z"></path>
<path d="M280 4981 c-8 -5 -32 -16 -52 -25 -44 -18 -49 -42 -21 -97 39 -79
214 -219 275 -219 9 0 20 -4 23 -10 4 -6 53 -10 115 -10 62 0 111 4 115 10 3
6 18 10 33 10 33 0 92 35 92 54 0 26 -68 130 -112 172 -51 48 -140 104 -168
104 -10 0 -22 5 -25 10 -7 12 -253 13 -275 1z"></path>
<path d="M4277 4652 c-41 -29 -126 -147 -127 -174 0 -9 -4 -19 -9 -22 -21 -13
-32 -198 -17 -276 16 -76 93 -210 122 -210 33 0 164 147 164 185 0 8 5 17 10
20 6 3 10 14 10 24 0 10 7 24 15 31 12 10 15 38 15 130 0 92 -3 120 -15 130
-8 7 -15 23 -15 36 0 43 -76 155 -104 154 -6 -1 -28 -13 -49 -28z"></path>
<path d="M6090 4630 c-8 -5 -27 -10 -42 -10 -15 0 -30 -4 -33 -10 -3 -5 -13
-10 -20 -10 -21 0 -115 -63 -151 -102 -43 -45 -104 -143 -104 -166 0 -10 -4
-22 -9 -27 -5 -6 -11 -26 -13 -45 -3 -33 -1 -35 37 -42 22 -4 55 -11 73 -14
40 -8 161 11 217 34 133 55 266 207 281 322 6 43 4 50 -12 56 -11 3 -27 10
-36 15 -23 12 -169 11 -188 -1z"></path>
<path d="M925 4490 c-11 -5 -30 -9 -42 -9 -68 -2 -233 -114 -233 -158 0 -26
110 -123 139 -123 6 0 19 -4 29 -9 80 -40 253 -55 294 -27 12 9 32 16 45 16
12 0 25 5 28 10 3 6 12 10 20 10 15 0 52 24 118 74 53 41 50 66 -15 114 -80
58 -128 81 -211 101 -55 13 -143 13 -172 1z"></path>
<path d="M2904 4338 c-79 -83 -101 -124 -134 -253 -21 -85 -6 -179 47 -295 37
-81 58 -110 80 -110 37 0 183 181 183 227 0 10 6 25 13 32 17 17 16 256 -1
273 -7 7 -12 20 -12 29 0 19 -14 47 -54 107 -38 56 -59 55 -122 -10z"></path>
<path d="M6400 4211 c-8 -6 -27 -11 -41 -11 -51 0 -177 -77 -235 -143 -56 -64
-70 -92 -54 -111 14 -18 67 -46 85 -46 7 0 18 -6 24 -14 32 -38 300 -39 332 0
6 8 18 14 25 14 19 0 51 19 91 51 17 15 35 28 40 30 15 7 80 93 87 115 5 17
-1 29 -31 53 -21 17 -45 31 -55 31 -9 0 -19 4 -22 9 -12 19 -223 37 -246 22z"></path>
<path d="M5425 4118 c-113 -38 -220 -120 -281 -215 -53 -83 -49 -94 52 -130
63 -22 230 -24 294 -4 25 8 68 29 95 46 55 35 159 140 175 177 5 13 15 30 22
40 19 27 -19 57 -113 87 -43 13 -202 13 -244 -1z"></path>
<path d="M309 4100 c-8 -5 -37 -16 -64 -26 -75 -25 -175 -102 -175 -135 0 -24
77 -92 135 -118 28 -13 58 -27 67 -32 10 -5 27 -9 38 -9 11 0 40 -5 64 -12 67
-18 164 1 269 53 63 32 137 96 137 119 0 35 -151 140 -200 140 -10 0 -23 7
-30 15 -10 12 -36 15 -119 15 -58 0 -113 -5 -122 -10z"></path>
<path d="M1240 3650 c-8 -5 -26 -10 -39 -10 -31 0 -116 -44 -169 -87 -74 -61
-152 -180 -152 -232 0 -39 61 -56 202 -56 88 0 131 4 140 13 6 6 18 12 25 12
21 0 122 67 166 109 51 49 107 142 107 179 0 36 -19 53 -79 69 -55 15 -180 17
-201 3z"></path>
<path d="M5850 3621 c-19 -4 -44 -12 -55 -18 -11 -6 -38 -19 -59 -29 -46 -22
-166 -130 -166 -150 0 -25 105 -92 188 -121 53 -17 246 -22 277 -6 11 6 47 23
80 39 74 36 165 118 165 150 0 29 -45 66 -127 104 -55 26 -80 31 -167 35 -55
2 -117 1 -136 -4z"></path>
<path d="M1925 3434 c-78 -8 -181 -65 -257 -141 l-62 -63 24 -25 c24 -25 114
-75 136 -75 6 0 17 -6 23 -14 13 -15 57 -20 189 -19 86 1 97 3 167 38 85 43
149 94 171 137 15 29 15 31 -10 57 -30 31 -92 66 -151 86 -44 15 -168 25 -230
19z"></path>
</g>
</svg>